<?xml version="1.0" standalone="no"?>
<!DOCTYPE svg PUBLIC "-//W3C//DTD SVG 20010904//EN"
"http://www.w3.org/TR/2001/REC-SVG-20010904/DTD/svg10.dtd">
<svg version="1.0" xmlns="http://www.w3.org/2000/svg"
width="1280.000000pt" height="640.000000pt" viewBox="0 0 1280.000000 640.000000"
preserveAspectRatio="xMidYMid meet">
<metadata>
Created by potrace 1.15, written by Peter Selinger 2001-2017
</metadata>
<defs>
<linearGradient id="fill-green" gradientTransform="rotate(90)">
<stop offset="5%" stopColor="#3330" />
<stop offset="95%" stopColor="#5554" />
</linearGradient>
<linearGradient id="fill-yellow" gradientTransform="rotate(90)">
<stop offset="5%" stopColor="#3305" />
<stop offset="95%" stopColor="#3305" />
</linearGradient>
</defs>
<g transform="translate(0.000000,640.000000) scale(0.100000,-0.050000)"
stroke="none">
<g fill="url('#fill-yellow')" stroke="none">
<path d="M3192 5773 c-28 -56 -45 -138 -46 -225 -1 -67 2 -80 21 -99 19 -20
26 -21 48 -11 32 15 52 62 71 166 27 155 15 206 -49 206 -21 0 -31 -8 -45 -37z"/>
<path d="M2641 5743 c-16 -55 -14 -86 10 -148 23 -63 119 -175 150 -175 33 0
42 35 24 97 -33 113 -124 263 -161 263 -7 0 -18 -17 -23 -37z"/>
<path d="M3665 5454 c-78 -52 -155 -122 -155 -140 0 -22 31 -44 61 -44 40 0
81 22 161 86 81 65 91 89 54 121 -15 13 -33 23 -39 23 -7 0 -44 -21 -82 -46z"/>
<path d="M2306 5453 c-30 -31 72 -141 184 -197 100 -49 150 -48 150 4 0 34
-45 80 -120 121 -84 46 -200 85 -214 72z"/>
<path d="M3865 5069 c-81 -12 -190 -45 -205 -63 -19 -24 -8 -50 32 -71 34 -18
42 -18 124 -7 48 7 117 23 153 35 62 21 66 24 69 55 6 63 -26 72 -173 51z"/>
<path d="M2276 5040 c-37 -11 -66 -38 -66 -61 0 -52 164 -85 289 -58 93 20
110 80 31 111 -49 18 -202 23 -254 8z"/>
<path d="M3596 4744 c-34 -33 -20 -62 52 -108 114 -73 223 -127 250 -124 27 3
49 45 39 72 -7 18 -185 142 -231 161 -46 19 -91 19 -110 -1z"/>
<path d="M2521 4659 c-52 -23 -125 -80 -148 -115 -12 -19 -13 -27 -3 -39 51
-61 287 89 249 158 -13 22 -44 21 -98 -4z"/>
<path d="M3381 4524 c-20 -14 -23 -23 -18 -61 7 -64 58 -159 122 -231 60 -66
89 -77 118 -44 25 27 22 44 -30 160 -50 112 -112 192 -149 192 -11 0 -30 -7
-43 -16z"/>
<path d="M2800 4443 c-75 -85 -133 -261 -97 -292 60 -49 219 202 193 304 -10
40 -56 34 -96 -12z"/>
<path d="M3113 4408 c-12 -24 -18 -65 -21 -148 -4 -139 10 -193 51 -198 42 -5
60 42 65 166 5 112 -12 183 -48 202 -26 14 -28 14 -47 -22z"/>
<path d="M2902 5389 c-83 -47 -194 -158 -230 -231 -34 -67 -62 -176 -62 -245
0 -159 90 -307 228 -371 53 -25 66 -27 182 -26 107 1 136 5 197 26 163 58 274
141 325 246 32 64 33 71 33 187 -1 131 -13 176 -70 243 -80 96 -246 122 -373
60 -64 -32 -162 -126 -196 -188 -39 -71 -34 -146 14 -243 43 -88 65 -100 175
-95 69 2 88 7 124 31 49 32 91 110 91 167 0 77 -68 136 -147 127 -74 -8 -102
-55 -71 -122 16 -36 2 -43 -28 -13 -18 17 -28 40 -31 70 -4 37 -1 49 21 75 40
48 126 86 191 86 43 0 63 -6 93 -27 55 -38 66 -63 59 -137 -15 -173 -174 -329
-350 -346 -92 -8 -154 14 -211 78 -107 119 -78 313 67 445 33 30 64 54 69 54
14 0 48 79 48 113 0 71 -61 86 -148 36z"/>
</g>
<g fill="url('#fill-green')"  stroke="none">
<path d="M5425 5217 c-16 -24 -22 -27 -54 -21 -20 4 -39 12 -43 18 -6 8 -8 8
-8 0 0 -7 -17 -15 -37 -19 -21 -3 -52 -15 -70 -25 -31 -18 -32 -18 -46 3 -8
12 -18 19 -22 15 -4 -4 0 -17 8 -29 15 -20 14 -24 -10 -55 -32 -43 -63 -142
-63 -205 0 -48 -1 -49 -29 -49 -42 0 -48 -18 -9 -22 18 -2 32 -6 31 -10 -2 -5
-3 -76 -3 -159 l0 -151 -30 5 c-16 4 -32 2 -35 -3 -3 -5 10 -12 30 -16 28 -5
35 -11 35 -30 0 -23 -3 -24 -61 -24 -37 0 -58 -4 -54 -10 3 -5 24 -10 45 -10
21 0 45 -2 52 -5 20 -8 11 -63 -11 -68 -14 -4 -14 -5 2 -6 15 -1 17 -14 17
-116 0 -96 -3 -115 -15 -115 -8 0 -15 -4 -15 -10 0 -5 7 -10 15 -10 13 0 15
-24 15 -155 0 -148 -1 -155 -20 -155 -26 0 -26 -16 1 -23 15 -4 20 -12 17 -28
-2 -19 -10 -23 -38 -23 -49 -1 -49 -20 0 -24 36 -3 40 -6 40 -31 0 -15 -5 -32
-11 -38 -6 -6 -7 -13 -2 -16 4 -3 7 -117 5 -255 l-3 -250 -94 52 -95 51 0 176
c0 166 -1 178 -24 224 -20 38 -22 51 -13 66 15 24 1 37 -20 16 -15 -15 -19
-15 -47 0 -17 9 -53 22 -81 28 -39 9 -51 16 -56 36 l-7 24 -1 -26 c-1 -22 -9
-29 -46 -43 -40 -16 -89 -60 -113 -102 -7 -13 -13 -14 -31 -4 -12 6 -27 9 -34
7 -7 -2 2 -11 18 -19 29 -15 30 -18 27 -76 l-4 -60 -201 103 c-249 128 -399
193 -587 255 -409 135 -725 142 -1091 24 -58 -19 -112 -34 -120 -34 -8 0 -29
31 -46 69 -23 48 -49 83 -88 119 -49 45 -55 54 -45 72 13 24 -4 28 -18 4 -8
-14 -14 -15 -46 -4 -20 6 -36 12 -36 13 0 1 4 18 10 37 9 32 8 33 -5 16 -8
-11 -15 -26 -15 -33 0 -9 -17 -13 -60 -13 -68 0 -151 -32 -213 -81 l-38 -31
-40 28 c-53 36 -60 25 -10 -18 37 -31 39 -36 26 -54 -21 -31 -52 -132 -60
-196 -6 -54 -8 -58 -33 -59 l-27 -1 28 -11 c18 -7 27 -18 27 -34 0 -21 -4 -23
-50 -23 -67 0 -64 -16 5 -25 52 -6 55 -8 55 -35 0 -22 -5 -30 -22 -33 l-23 -4
23 -8 c14 -5 22 -15 22 -29 0 -17 -28 -41 -121 -104 -66 -45 -127 -82 -135
-82 -8 0 -14 10 -14 23 -1 20 -2 21 -14 5 -8 -11 -27 -18 -47 -18 -19 -1 -51
-7 -72 -14 -36 -13 -38 -13 -58 16 -26 36 -36 30 -16 -8 14 -27 14 -29 -32
-70 -44 -40 -101 -134 -101 -168 0 -10 -9 -16 -22 -17 -17 -1 -19 -2 -6 -6 32
-8 19 -30 -53 -88 -239 -193 -586 -512 -847 -780 l-182 -186 0 -225 c0 -190
-2 -226 -15 -230 -13 -5 -15 -66 -15 -460 l0 -454 6400 0 6400 0 0 999 0 999
-162 130 c-774 616 -1586 1090 -2172 1267 -235 70 -349 89 -556 89 -152 0
-203 -4 -286 -22 -232 -50 -508 -170 -784 -340 l-145 -90 -17 29 c-10 16 -41
51 -69 78 -45 43 -50 51 -40 70 14 26 -2 28 -20 2 -13 -17 -17 -17 -46 -5 -29
12 -31 16 -23 44 5 16 5 30 0 30 -5 0 -11 -12 -14 -27 -6 -27 -9 -28 -70 -29
-51 0 -78 -7 -128 -32 -35 -17 -74 -42 -87 -56 l-24 -25 -43 31 c-57 41 -66
31 -15 -15 l39 -35 -20 -41 c-27 -54 -48 -137 -48 -188 0 -42 -1 -43 -32 -44
l-33 -1 33 -14 c21 -9 32 -21 32 -34 0 -17 -7 -20 -40 -20 -39 0 -40 1 -40 34
0 19 -4 46 -10 60 -6 17 -6 26 0 26 6 0 10 5 10 10 0 6 -6 10 -12 10 -7 0 -23
18 -36 41 -25 42 -94 94 -143 104 -22 5 -29 12 -29 31 0 14 -4 22 -10 19 -5
-3 -10 -14 -10 -24 0 -13 -13 -21 -47 -29 -27 -6 -55 -13 -64 -17 -13 -5 -23
5 -40 34 -12 23 -26 41 -31 41 -12 0 -10 -6 13 -52 l21 -40 -41 -41 c-23 -22
-52 -64 -66 -94 -24 -50 -28 -53 -63 -53 -27 0 -33 -3 -22 -10 8 -5 26 -10 39
-10 16 0 21 -4 17 -15 -3 -8 -8 -62 -12 -120 l-7 -105 -33 0 c-18 0 -36 -4
-39 -10 -4 -6 10 -10 34 -10 23 0 41 -4 41 -10 0 -5 -9 -10 -19 -10 -11 0 -23
-4 -26 -10 -3 -6 5 -10 19 -10 21 0 26 -6 30 -32 2 -18 9 -66 15 -106 6 -40
11 -79 11 -88 0 -30 -300 -154 -499 -205 -160 -41 -292 -59 -451 -59 -124 0
-245 12 -258 25 -3 3 -7 41 -10 84 -4 71 -3 80 14 84 17 4 17 5 -2 6 -15 1
-24 12 -33 43 -17 56 -50 106 -100 151 -41 37 -41 38 -25 62 9 14 14 29 10 33
-4 4 -12 0 -16 -8 -26 -42 -26 -42 -66 -31 -22 6 -54 11 -73 11 -20 0 -39 7
-47 18 -12 16 -13 16 -14 -4 0 -15 -8 -24 -26 -28 -36 -9 -108 -79 -129 -125
-13 -29 -25 -41 -44 -44 -26 -4 -26 -4 -3 -12 20 -6 22 -12 16 -44 -4 -20 -8
-38 -10 -40 -4 -4 -118 42 -143 58 -11 7 -15 52 -19 203 l-5 194 97 12 c107
13 155 33 217 89 52 47 132 167 159 240 31 81 38 208 16 267 -21 56 -83 113
-132 122 -49 9 -130 -11 -171 -42 -45 -34 -61 -77 -73 -202 -12 -115 -37 -184
-77 -210 l-23 -14 0 410 0 411 46 37 c52 43 43 60 -10 19 l-34 -26 -4 328 c-3
304 -5 332 -25 388 -17 47 -19 63 -10 74 10 12 9 14 -6 8 -12 -5 -30 2 -52 20
-27 22 -32 30 -24 46 17 31 4 43 -16 14z m2631 -1907 c16 0 23 -7 26 -30 4
-26 1 -30 -19 -30 -14 0 -21 -4 -18 -10 3 -5 15 -10 26 -10 10 0 19 -4 19 -10
0 -11 -119 -94 -126 -87 -3 3 -2 28 2 57 5 39 12 54 28 60 18 8 19 9 2 9 -12
1 -16 6 -12 17 3 9 6 23 6 31 0 11 6 14 23 9 12 -3 32 -6 43 -6z"/>
</g>

</g>
</svg>
